<?xml version="1.0" standalone="no"?>
<!DOCTYPE svg PUBLIC "-//W3C//DTD SVG 20010904//EN"
 "http://www.w3.org/TR/2001/REC-SVG-20010904/DTD/svg10.dtd">
<svg version="1.0" xmlns="http://www.w3.org/2000/svg"
 width="300.000000pt" height="300.000000pt" viewBox="0 0 300.000000 300.000000"
 preserveAspectRatio="xMidYMid meet">
<metadata>
Created by potrace 1.10, written by Peter Selinger 2001-2011
</metadata>
<g transform="translate(0.000000,300.000000) scale(0.100000,-0.100000)"
fill="#000000" stroke="none">
<path d="M1602 2543 c-6 -2 -9 -10 -5 -16 4 -7 0 -8 -11 -4 -9 4 -15 3 -12 -2
6 -8 -30 -25 -47 -22 -5 1 -6 -3 -2 -9 3 -5 1 -10 -4 -10 -19 0 -25 -4 -55
-32 -15 -15 -41 -33 -57 -40 -19 -8 -24 -15 -16 -20 8 -5 3 -8 -11 -8 -13 0
-22 -3 -20 -7 5 -11 -50 -62 -57 -54 -4 3 -5 1 -3 -5 2 -6 -12 -23 -29 -38
-18 -15 -33 -34 -33 -42 0 -9 -4 -13 -9 -9 -5 3 -12 -4 -16 -15 -3 -11 -11
-20 -16 -20 -5 0 -9 -7 -9 -15 0 -9 -7 -18 -15 -21 -8 -4 -15 -12 -15 -18 0
-7 -9 -22 -20 -34 -12 -12 -17 -22 -13 -22 4 0 3 -4 -4 -8 -6 -4 -13 -14 -15
-22 -2 -8 -10 -22 -19 -30 -9 -8 -15 -23 -13 -32 1 -10 -4 -18 -11 -18 -7 0
-12 -8 -10 -17 1 -10 -3 -25 -11 -33 -7 -9 -14 -34 -15 -58 -2 -23 -8 -42 -13
-42 -7 0 -8 -3 -1 -8 16 -12 13 -72 -5 -72 -10 0 -8 -5 7 -15 12 -8 20 -23 18
-32 -2 -10 -4 -21 -4 -25 -2 -13 -31 4 -31 18 0 8 -10 14 -22 14 -19 0 -20 2
-8 10 13 8 12 10 -3 10 -21 0 -49 24 -40 34 4 3 1 6 -5 6 -7 0 -11 3 -11 8 3
20 -2 32 -16 32 -8 0 -15 3 -15 8 0 4 -4 13 -9 20 -7 12 -12 12 -32 0 -13 -7
-31 -21 -40 -30 -9 -10 -22 -18 -28 -18 -7 0 -9 -4 -6 -10 3 -5 -1 -10 -9 -10
-9 0 -15 -3 -15 -7 3 -19 -2 -34 -9 -29 -11 7 -39 -27 -35 -41 2 -6 -1 -15 -8
-19 -8 -5 -10 -3 -4 7 5 8 4 11 -1 6 -5 -5 -9 -12 -9 -16 0 -4 -7 -15 -15 -24
-37 -41 -40 -46 -40 -71 0 -8 -7 -22 -16 -30 -8 -9 -17 -26 -19 -38 -3 -12 -9
-25 -15 -28 -6 -4 -10 -11 -8 -16 1 -5 -5 -22 -14 -39 -8 -16 -14 -39 -12 -50
2 -11 -3 -25 -10 -30 -18 -14 -30 -55 -16 -55 6 0 9 4 6 8 -2 4 0 14 5 22 6
10 7 0 4 -29 -3 -25 -9 -50 -13 -55 -4 -6 -7 -37 -7 -69 0 -31 -4 -57 -8 -57
-5 0 -4 -7 3 -15 16 -19 21 -85 6 -86 -6 0 -2 -4 9 -9 11 -5 14 -9 8 -9 -18
-1 -16 -21 2 -21 10 0 13 -9 10 -36 -3 -22 -1 -33 5 -29 5 3 10 -3 10 -14 0
-12 6 -21 13 -21 9 0 8 -3 -2 -9 -10 -7 -8 -12 10 -25 13 -9 19 -16 14 -16 -6
0 -3 -5 5 -10 9 -6 10 -10 3 -10 -7 0 -16 8 -22 18 -9 15 -10 15 -8 -5 0 -12
5 -21 10 -20 9 2 16 -19 19 -50 1 -9 7 -9 21 -1 14 7 17 7 13 -1 -4 -6 -2 -11
5 -11 8 0 7 -5 -2 -17 -13 -15 -12 -15 8 -5 16 9 24 9 29 0 5 -7 3 -8 -6 -3
-10 6 -12 4 -7 -8 4 -12 2 -14 -10 -10 -11 4 -14 2 -9 -5 4 -7 18 -12 32 -12
23 0 33 -13 17 -23 -5 -2 -2 -2 5 -1 6 2 12 -1 12 -7 0 -6 4 -8 9 -4 5 3 12 1
16 -5 3 -5 1 -10 -5 -10 -6 0 -8 -5 -5 -11 4 -6 13 -8 20 -5 7 2 15 -1 18 -7
7 -21 -4 -36 -21 -30 -14 4 -15 3 -2 -6 8 -5 29 -10 47 -9 26 1 31 4 22 15 -9
9 -8 13 0 13 6 0 14 -6 17 -14 4 -10 21 -13 65 -11 33 1 62 5 65 8 4 3 18 1
32 -4 29 -11 85 -2 76 12 -3 5 -1 9 5 9 13 0 9 92 -4 102 -6 5 -4 8 5 8 13 0
13 1 0 10 -11 7 -11 10 -2 10 7 0 10 5 7 10 -3 6 -1 10 5 10 6 0 4 7 -5 16 -9
10 -13 20 -8 23 5 3 8 32 8 63 0 32 2 58 6 58 3 0 6 6 6 13 1 32 14 72 23 75
5 2 8 7 5 12 -2 4 6 19 20 34 13 14 22 26 19 26 -3 0 1 7 10 15 8 8 20 15 26
15 6 0 8 5 5 10 -6 9 8 14 28 11 5 -1 6 3 2 9 -6 9 8 14 28 11 4 -1 3 8 -3 18
-7 15 -7 22 2 28 36 23 96 55 121 64 15 6 27 15 27 21 0 5 4 7 9 3 5 -3 12 -1
16 5 3 5 15 10 26 10 10 0 19 5 19 12 0 6 3 9 6 5 3 -3 24 5 45 19 21 13 42
24 45 24 4 0 22 11 39 25 18 13 35 21 39 18 3 -4 6 -1 6 5 0 7 10 12 23 13 12
0 16 3 9 6 -9 3 -4 12 15 29 15 13 32 24 37 24 5 0 6 3 3 7 -4 3 2 12 12 20
12 8 18 22 16 33 -2 11 0 20 4 20 13 0 34 59 34 96 0 19 4 34 9 34 5 0 6 5 3
10 -3 6 -1 10 5 10 7 0 8 6 0 19 -7 14 -6 21 3 24 6 3 4 6 -7 6 -13 1 -16 4
-8 14 6 7 7 34 1 71 -4 33 -7 62 -6 65 1 3 -4 16 -11 27 -6 12 -8 24 -5 28 3
3 1 6 -6 6 -7 0 -10 4 -7 8 3 5 -2 21 -10 37 -8 16 -12 35 -9 42 2 8 0 11 -5
8 -6 -3 -10 0 -11 7 0 7 -3 22 -5 33 -3 11 -6 26 -6 33 -1 6 -4 12 -8 12 -4 0
-7 7 -7 15 0 8 4 15 9 15 4 0 1 8 -8 19 -20 22 -30 171 -13 171 8 0 8 4 0 14
-8 10 -9 16 -1 21 6 3 8 11 5 16 -4 5 -1 9 5 9 7 0 8 6 1 19 -6 10 -8 21 -5
24 3 3 8 22 11 41 4 29 1 36 -12 36 -9 0 -13 5 -9 11 13 22 -46 38 -84 22z
m64 -65 c-14 -95 -18 -274 -7 -327 6 -29 32 -110 58 -179 47 -125 47 -129 47
-242 -1 -230 -63 -307 -381 -469 -170 -87 -241 -147 -295 -247 -49 -93 -62
-168 -55 -315 l5 -119 -113 0 c-98 0 -116 3 -139 21 -14 11 -31 17 -37 13 -7
-4 -9 -3 -6 3 4 6 -6 24 -21 40 -55 60 -72 84 -106 150 -154 303 -85 659 186
957 l45 50 30 -45 c17 -25 48 -61 68 -81 41 -40 133 -94 142 -84 4 3 -2 32
-12 64 -63 198 60 460 322 683 86 74 229 168 257 168 16 1 18 -4 12 -41z"/>
<path d="M1952 1819 c-12 -11 -20 -24 -17 -30 4 -5 -2 -9 -12 -9 -15 0 -16 -2
-3 -10 11 -7 12 -10 2 -10 -10 0 -10 -4 2 -16 9 -8 16 -22 16 -29 0 -7 -7 -21
-16 -29 -8 -9 -11 -16 -5 -16 14 0 14 -47 0 -55 -6 -4 -8 -13 -5 -20 3 -8 0
-15 -5 -17 -5 -2 -11 -13 -12 -26 0 -12 -5 -22 -10 -22 -4 0 -5 -4 -2 -10 3
-5 1 -10 -4 -10 -6 0 -10 -3 -10 -7 3 -20 -2 -33 -14 -33 -7 0 -14 -10 -14
-22 -1 -13 -9 -28 -17 -34 -9 -6 -13 -14 -9 -17 3 -4 -1 -7 -10 -7 -10 0 -16
-6 -15 -12 2 -7 -3 -12 -10 -10 -8 1 -11 -1 -8 -6 3 -5 -6 -19 -20 -33 -13
-13 -33 -33 -45 -44 -11 -11 -24 -20 -29 -20 -5 0 -19 -9 -32 -20 -13 -11 -35
-26 -50 -34 -15 -8 -25 -17 -23 -22 3 -4 -1 -13 -8 -21 -8 -7 -13 -21 -11 -31
1 -9 -4 -24 -13 -32 -8 -8 -10 -15 -5 -15 5 0 17 9 27 20 19 21 45 27 45 10 0
-5 9 -10 21 -10 13 0 19 -5 16 -13 -3 -9 5 -12 29 -9 21 3 34 0 34 -7 0 -6 10
-12 23 -12 18 -1 16 -3 -8 -9 -29 -7 -29 -8 10 -9 30 -1 45 -8 58 -26 10 -14
13 -25 7 -25 -6 0 -9 -4 -5 -10 3 -5 12 -7 19 -4 21 8 66 -64 66 -104 0 -18 4
-31 9 -27 6 3 9 -4 8 -15 -1 -12 -7 -18 -14 -16 -7 3 -15 0 -19 -6 -4 -7 -3
-8 4 -4 7 4 12 2 12 -3 0 -6 8 -11 18 -12 10 0 12 -3 5 -6 -7 -2 -13 -9 -13
-14 0 -6 4 -8 8 -5 5 3 9 -1 9 -9 0 -10 -5 -11 -18 -4 -15 7 -17 6 -13 -5 3
-8 13 -17 22 -19 15 -4 15 -5 0 -6 -21 -1 -24 -17 -5 -24 9 -4 9 -8 1 -14 -9
-6 -8 -11 1 -20 11 -10 14 -1 20 47 23 198 -76 352 -263 410 -31 10 -57 22
-57 28 0 6 28 29 62 51 119 76 200 170 262 300 34 73 56 185 47 248 -8 63 9
64 97 4 188 -127 321 -294 377 -476 40 -129 22 -332 -37 -422 -9 -13 -13 -26
-10 -29 3 -4 -6 -17 -19 -29 -14 -13 -25 -26 -25 -29 1 -3 1 -10 1 -14 0 -17
-99 -112 -116 -112 -9 0 -15 -3 -11 -6 6 -7 -46 -54 -60 -54 -4 0 -22 -15 -40
-34 -17 -19 -33 -32 -36 -29 -3 3 -16 -4 -28 -16 -19 -17 -20 -21 -6 -21 9 0
17 5 17 10 0 6 9 10 20 10 11 0 20 6 20 14 0 9 15 17 40 21 22 4 38 11 35 15
-6 10 24 42 34 36 4 -3 36 24 70 60 34 35 65 64 68 64 2 0 11 7 19 15 10 9 11
15 4 15 -7 0 -5 7 4 16 9 8 14 19 11 24 -2 4 10 15 28 24 17 8 26 16 19 16 -7
0 -10 4 -7 10 3 5 9 29 14 52 4 24 12 42 18 41 14 -3 27 51 36 145 2 23 1 42
-3 42 -14 0 -6 30 9 31 12 0 11 3 -4 9 -11 5 -14 9 -7 9 8 1 10 6 6 13 -10 15
-14 41 -17 90 -2 29 -6 38 -19 38 -14 0 -18 9 -18 40 0 22 -5 40 -11 40 -5 0
-7 5 -4 10 3 6 0 10 -7 10 -9 0 -9 3 2 10 13 8 12 10 -2 10 -16 0 -23 11 -19
33 1 5 -3 5 -9 2 -6 -4 -11 -1 -10 6 4 27 -13 59 -29 59 -10 0 -23 14 -31 35
-8 19 -20 35 -27 35 -8 0 -11 5 -8 10 3 6 -1 10 -9 10 -8 0 -21 10 -27 23 -15
28 -45 57 -59 57 -6 0 -9 4 -6 8 2 4 -9 14 -25 21 -16 7 -27 17 -23 22 3 5 -2
9 -10 9 -9 0 -16 5 -16 10 0 6 -10 10 -22 11 -13 0 -17 3 -10 6 15 6 -30 33
-55 33 -8 0 -11 5 -8 10 12 19 -51 10 -73 -11z"/>
<path d="M1537 1064 c-2 -2 -46 -4 -98 -5 -87 0 -149 -14 -149 -31 0 -5 -6 -8
-13 -8 -16 0 -53 -41 -69 -76 -6 -13 -15 -24 -20 -24 -5 0 -6 -4 -3 -10 3 -5
1 -10 -4 -10 -6 0 -10 -3 -9 -7 1 -5 -5 -21 -12 -38 -7 -16 -13 -33 -12 -37 1
-5 -4 -8 -10 -8 -9 0 -8 -4 2 -10 13 -9 13 -10 0 -10 -12 0 -12 -2 -2 -9 8 -4
14 -12 14 -16 0 -4 -6 -12 -14 -16 -7 -5 -8 -9 -3 -9 6 0 10 -33 11 -75 0 -42
5 -80 10 -85 5 -5 8 45 6 125 -2 94 0 135 8 135 6 0 9 4 6 9 -3 5 0 11 7 14 9
3 12 -24 11 -122 -1 -76 2 -129 8 -132 6 -4 7 -12 3 -19 -6 -9 -10 -9 -17 1
-8 11 -9 11 -6 -1 3 -8 15 -14 29 -14 13 0 27 -7 30 -16 6 -13 36 -15 215 -14
259 2 257 2 249 14 -3 6 -2 10 4 10 6 0 20 19 32 42 15 30 20 53 16 85 -2 24
-1 43 3 43 10 0 6 44 -5 52 -6 5 -5 8 4 8 11 0 11 3 0 16 -9 11 -9 18 -2 22 8
5 7 18 -2 45 -10 30 -10 37 1 37 7 0 20 -10 28 -22 12 -16 16 -18 16 -7 0 9
-11 21 -24 28 -13 7 -30 24 -37 37 -7 13 -25 29 -41 36 -24 11 -29 18 -25 40
2 15 0 25 -5 22 -4 -3 -8 -13 -8 -22 0 -14 -3 -13 -18 5 -11 15 -31 23 -59 26
-24 2 -44 2 -46 1z m64 -48 c100 -42 122 -85 122 -237 -1 -140 -7 -170 -38
-199 -22 -21 -32 -22 -151 -21 -88 1 -131 6 -136 14 -6 9 -10 9 -17 -2 -5 -8
-11 -9 -15 -3 -8 13 -48 12 -57 -1 -4 -5 -26 2 -50 17 -24 14 -40 26 -35 26 5
0 3 7 -4 15 -8 10 -12 50 -11 126 1 78 -2 116 -11 127 -8 10 -9 13 -1 9 7 -4
14 1 18 14 11 34 67 91 110 110 51 24 225 26 276 5z"/>
<path d="M1843 695 c-1 -19 3 -35 8 -35 6 0 7 5 4 10 -3 6 -3 10 2 10 4 0 8
11 8 25 0 39 -20 30 -22 -10z"/>
<path d="M1874 663 c7 -12 -4 -17 -29 -14 -6 0 -11 -9 -12 -22 0 -12 -4 -35
-8 -51 -7 -26 -6 -28 6 -16 8 7 16 25 17 39 2 23 12 35 37 45 6 2 4 9 -4 17
-9 9 -11 9 -7 2z"/>
<path d="M1958 573 c29 -2 74 -2 100 0 26 2 2 3 -53 3 -55 0 -76 -1 -47 -3z"/>
<path d="M1870 548 c0 -5 4 -7 9 -3 5 3 12 1 16 -5 3 -6 -4 -10 -16 -10 -12 0
-19 -3 -15 -7 8 -8 172 -7 186 2 6 3 10 12 9 18 0 9 -2 9 -6 0 -7 -20 -23 -15
-17 5 5 16 5 16 -9 0 -17 -21 -29 -24 -21 -5 3 9 -13 13 -66 13 -38 0 -70 -3
-70 -8z"/>
<path d="M1506 498 c7 -10 74 -7 74 4 0 4 -18 6 -39 5 -22 0 -37 -5 -35 -9z"/>
<path d="M1940 492 c14 -2 28 -9 32 -16 6 -8 8 -8 8 2 0 6 7 12 16 12 8 0 13
-4 10 -8 -3 -5 1 -9 8 -9 7 0 13 6 13 13 0 9 -17 12 -56 12 -31 -1 -45 -3 -31
-6z"/>
</g>
</svg>
